<svg width="18" height="18" viewBox="0 0 18 18" fill="none" xmlns="http://www.w3.org/2000/svg">
<g opacity="0.5" clip-path="url(#clip0_2_57)">
<path fill-rule="evenodd" clip-rule="evenodd" d="M5.25 2.25C5.25 1.00736 6.25736 0 7.5 0H10.5C11.7427 0 12.75 1.00736 12.75 2.25H14.25C15.4927 2.25 16.5 3.25736 16.5 4.5C16.5 4.91421 16.1642 5.25 15.75 5.25H2.25C1.83579 5.25 1.5 4.91421 1.5 4.5C1.5 3.25736 2.50736 2.25 3.75 2.25H5.25ZM3 6.75H15C15.4142 6.75 15.75 7.08578 15.75 7.5V15.75C15.75 16.9927 14.7427 18 13.5 18H4.5C3.25736 18 2.25 16.9927 2.25 15.75V7.5C2.25 7.08578 2.58579 6.75 3 6.75ZM5.25 9.85718V14.1428C5.25 14.6162 5.58579 15 6 15C6.41421 15 6.75 14.6162 6.75 14.1428V9.85718C6.75 9.38378 6.41421 9 6 9C5.58579 9 5.25 9.38378 5.25 9.85718ZM8.25 9.85718V14.1428C8.25 14.6162 8.58577 15 9 15C9.41422 15 9.75 14.6162 9.75 14.1428V9.85718C9.75 9.38378 9.41422 9 9 9C8.58577 9 8.25 9.38378 8.25 9.85718ZM11.25 9.85718V14.1428C11.25 14.6162 11.5858 15 12 15C12.4142 15 12.75 14.6162 12.75 14.1428V9.85718C12.75 9.38378 12.4142 9 12 9C11.5858 9 11.25 9.38378 11.25 9.85718ZM7.5 1.5C7.08579 1.5 6.75 1.83579 6.75 2.25H11.25C11.25 1.83579 10.9142 1.5 10.5 1.5H7.5Z" fill="#474646"/>
</g>
<defs>
<clipPath id="clip0_2_57">
<rect width="18" height="18" fill="white"/>
</clipPath>
</defs>
</svg>
