<svg width="26" height="28" viewBox="0 0 26 28" fill="none" xmlns="http://www.w3.org/2000/svg">
<path d="M26 14.3068C26 13.3495 25.9156 12.4291 25.7588 11.5455H13.2653V16.7736H20.4045C20.0909 18.455 19.1503 19.8786 17.7393 20.8359V24.2355H22.0445C24.5529 21.8791 26 18.4182 26 14.3068Z" fill="#4285F4"/>
<path d="M13.2653 27.5C16.8469 27.5 19.8497 26.2973 22.0445 24.2355L17.7393 20.8359C16.5575 21.6459 15.0501 22.1368 13.2653 22.1368C9.81633 22.1368 6.8859 19.7682 5.83674 16.5773H1.42301V20.0627C3.60575 24.4686 8.07978 27.5 13.2653 27.5Z" fill="#34A853"/>
<path d="M5.83674 16.565C5.57143 15.755 5.41466 14.8959 5.41466 14C5.41466 13.1041 5.57143 12.245 5.83674 11.435V7.94955H1.42301C0.518553 9.76591 0 11.8155 0 14C0 16.1845 0.518553 18.2341 1.42301 20.0505L4.85993 17.3259L5.83674 16.565Z" fill="#FBBC05"/>
<path d="M13.2653 5.87545C15.2189 5.87545 16.9555 6.56273 18.3423 7.88818L22.141 4.02227C19.8377 1.83773 16.8469 0.5 13.2653 0.5C8.07978 0.5 3.60575 3.53136 1.42301 7.94955L5.83674 11.435C6.8859 8.24409 9.81633 5.87545 13.2653 5.87545Z" fill="#EA4335"/>
</svg>
