<svg width="49" height="49" viewBox="0 0 49 49" fill="none" xmlns="http://www.w3.org/2000/svg">
<path d="M24.4949 44.1C23.6494 44.0997 22.8049 44.0411 21.9675 43.9246C20.3785 43.7042 18.8233 43.2857 17.3383 42.679C14.2448 41.4077 11.5484 39.3311 9.52924 36.6649C8.50451 35.326 7.66723 33.8536 7.04055 32.2884C5.83647 29.2685 5.43452 25.9883 5.87378 22.767C6.31305 19.5457 7.57859 16.4929 9.54729 13.9057C10.5717 12.558 11.7752 11.3563 13.1243 10.3338C13.6863 9.93722 14.3803 9.7741 15.0601 9.87879C15.74 9.98348 16.3527 10.3478 16.7694 10.8951C17.1861 11.4425 17.3742 12.1301 17.2941 12.8133C17.2141 13.4965 16.8721 14.122 16.3402 14.5581C15.3749 15.2883 14.5134 16.1464 13.7793 17.1087C13.0683 18.0448 12.4806 19.0684 12.0308 20.1545C11.5902 21.2221 11.2886 22.342 11.1333 23.4865C10.815 25.8014 11.1048 28.1594 11.9741 30.3284C12.4224 31.4463 13.0211 32.4979 13.7536 33.4541C14.4862 34.4221 15.3469 35.2861 16.3119 36.0227C17.2447 36.7337 18.2659 37.3206 19.3499 37.7687C20.4227 38.2084 21.5464 38.5116 22.6948 38.6713C23.8339 38.8291 24.9889 38.836 26.1299 38.6919C27.2974 38.542 28.4413 38.2447 29.5341 37.8074C31.7874 36.8953 33.756 35.3978 35.2362 33.4696C36.653 31.6165 37.5599 29.4248 37.8667 27.1125C38.0234 25.9699 38.0321 24.8118 37.8925 23.667C37.7446 22.5007 37.4473 21.3583 37.0079 20.2679C36.556 19.1411 35.953 18.0809 35.2156 17.1165C34.4873 16.1542 33.6309 15.2961 32.6701 14.5659C32.3764 14.3618 32.127 14.1006 31.9367 13.7978C31.7464 13.495 31.6192 13.1569 31.5628 12.8038C31.5063 12.4506 31.5217 12.0897 31.6081 11.7427C31.6945 11.3957 31.8501 11.0697 32.0655 10.7842C32.281 10.4988 32.5518 10.2598 32.8619 10.0815C33.1719 9.90329 33.5147 9.78949 33.8698 9.74695C34.2249 9.70441 34.5849 9.73401 34.9283 9.83397C35.2716 9.93393 35.5913 10.1022 35.868 10.3287C37.2153 11.3517 38.4163 12.5543 39.4373 13.9031C40.4665 15.2497 41.308 16.7297 41.9389 18.3028C42.5446 19.815 42.9545 21.3984 43.1587 23.0145C43.6587 27.1282 42.7866 31.292 40.6779 34.8593C38.5692 38.4267 35.3418 41.1982 31.4967 42.7435C29.9854 43.3453 28.404 43.7534 26.7901 43.9582C26.0288 44.0537 25.2622 44.0993 24.4949 44.1ZM24.5 24.7914C23.796 24.7914 23.1207 24.5119 22.6226 24.0143C22.1246 23.5167 21.8444 22.8417 21.8437 22.1377V6.50409C21.8437 5.7996 22.1236 5.12395 22.6217 4.6258C23.1199 4.12764 23.7955 3.84778 24.5 3.84778C25.2045 3.84778 25.8802 4.12764 26.3783 4.6258C26.8765 5.12395 27.1563 5.7996 27.1563 6.50409V22.1377C27.1563 22.8422 26.8765 23.5178 26.3783 24.016C25.8802 24.5141 25.2045 24.794 24.5 24.794V24.7914Z" fill="#47B4E2"/>
</svg>
